<svg width="21" height="12" viewBox="0 0 21 12" fill="none" xmlns="http://www.w3.org/2000/svg">
<path d="M10.79 11.617L20.438 1.97099C20.571 1.83999 20.633 1.66999 20.633 1.49799C20.633 1.32599 20.571 1.15399 20.438 1.02499L20.426 1.01299C20.301 0.885993 20.131 0.817993 19.954 0.817993H15.272C15.092 0.817993 14.924 0.885993 14.799 1.01299L10.319 5.49199L5.839 1.01299C5.711 0.885993 5.54 0.817993 5.366 0.817993H0.684C0.502 0.817993 0.335 0.885993 0.209 1.01299L0.196 1.02499C0.068 1.14799 0 1.32199 0 1.49799C0 1.67399 0.068 1.84599 0.196 1.97099L9.844 11.617C10.108 11.88 10.53 11.88 10.79 11.617Z" fill="#40C9DB"/>
</svg>
