<svg width="192" height="204" viewBox="0 0 192 204" fill="none" xmlns="http://www.w3.org/2000/svg">
<path d="M139.014 0H52.9839C23.7686 0 0 25.1392 0 56.0378V147.024C0 177.924 23.7686 203.062 52.9839 203.062H139.014C168.231 203.062 192 177.923 192 147.024V56.0378C192.001 25.1392 168.231 0 139.014 0ZM174.966 147.024C174.966 167.99 158.838 185.045 139.015 185.045H52.9839C33.1618 185.047 17.0352 167.99 17.0352 147.024V56.0378C17.0352 35.0736 33.1618 18.0166 52.9839 18.0166H139.014C158.837 18.0166 174.965 35.0736 174.965 56.0378V147.024H174.966Z" fill="#40C9DB"/>
<path d="M96 49.2095C68.7199 49.2095 46.5265 72.6816 46.5265 101.533C46.5265 130.384 68.7199 153.855 96 153.855C123.28 153.855 145.474 130.384 145.474 101.533C145.474 72.6816 123.28 49.2095 96 49.2095ZM96 135.837C78.1142 135.837 63.5617 120.448 63.5617 101.532C63.5617 82.6147 78.1131 67.2249 96 67.2249C113.887 67.2249 128.438 82.6147 128.438 101.532C128.438 120.448 113.886 135.837 96 135.837Z" fill="#40C9DB"/>
<path d="M147.548 33.9326C144.266 33.9326 141.042 35.3379 138.724 37.8001C136.395 40.2504 135.056 43.6615 135.056 47.1448C135.056 50.6172 136.396 54.0271 138.724 56.4894C141.041 58.9397 144.266 60.357 147.548 60.357C150.842 60.357 154.056 58.9397 156.384 56.4894C158.712 54.0271 160.041 50.616 160.041 47.1448C160.041 43.6615 158.712 40.2504 156.384 37.8001C154.067 35.3379 150.842 33.9326 147.548 33.9326Z" fill="#40C9DB"/>
</svg>
