<svg width="512" height="512" viewBox="0 0 512 512" fill="none" xmlns="http://www.w3.org/2000/svg">
<path d="M3.429 166.013V512H127.984V166.013H3.429ZM100.306 484.321H31.108V193.692H100.305V484.321H100.306Z" fill="#40C9DB"/>
<path d="M64.389 0C29.71 0 4.53101 23.989 4.53101 57.047C4.53101 89.551 29.777 114.054 63.268 114.054C80.797 114.054 95.948 108.324 107.084 97.498C117.801 87.064 123.708 72.698 123.694 56.723C122.91 23.327 98.529 0 64.389 0ZM87.784 77.658C81.918 83.361 73.444 86.375 63.267 86.375C44.981 86.375 32.21 74.319 32.21 57.047C32.21 39.477 45.144 27.679 64.389 27.679C83.473 27.679 95.596 39.059 96.015 57.061C96.015 65.17 93.095 72.482 87.784 77.658Z" fill="#40C9DB"/>
<path d="M379.248 166.074C340.054 166.074 314.537 178.221 298.347 191.047L296.012 166.013H183.343V512H294.059V330.228C294.059 322.835 297.252 307.442 298.86 303.982C310.199 279.519 325.921 279.519 350.559 279.519C377.603 279.519 401.315 305.063 401.315 335.296V512H508.571V316.889C508.571 213.268 441.701 166.074 379.248 166.074ZM480.892 484.321H428.994V335.296C428.994 290.061 392.642 251.84 350.596 251.84C323.795 251.84 292.93 251.84 274.158 292.318C270.225 300.778 266.38 320.24 266.38 330.228V484.321H211.022V193.692H270.982L275.158 235.21H297.201L301.256 228.652C307.77 218.164 328.08 193.763 379.248 193.763C428.375 193.763 480.892 232.285 480.892 316.889V484.321Z" fill="#40C9DB"/>
</svg>
