<svg width="96" height="84" viewBox="0 0 96 84" fill="none" xmlns="http://www.w3.org/2000/svg">
<path d="M92.938 0H2.4C1.076 0 0 1.077 0 2.4V65.838C0 67.16 1.077 68.238 2.4 68.238H92.938C94.261 68.238 95.337 67.16 95.337 65.838V2.401C95.338 1.077 94.262 0 92.938 0ZM88.137 61.037H7.201V7.202H88.137V61.037Z" fill="#40C9DB"/>
<path d="M65.072 75.976H60.271V71.574C60.271 70.911 59.732 70.374 59.07 70.374H36.267C35.604 70.374 35.067 70.911 35.067 71.574V75.976H30.266C29.603 75.976 29.066 76.513 29.066 77.175V82.576C29.066 83.239 29.604 83.776 30.266 83.776H65.072C65.734 83.776 66.271 83.239 66.271 82.576V77.175C66.271 76.513 65.734 75.976 65.072 75.976Z" fill="#40C9DB"/>
<path d="M15.303 13.297C14.199 13.297 13.303 14.193 13.303 15.297V31.969L31.974 13.297H15.303Z" fill="#40C9DB"/>
</svg>
