<svg width="451" height="487" viewBox="0 0 451 487" fill="none" xmlns="http://www.w3.org/2000/svg">
<path d="M379.7 24.6C338.3 8.7 283.5 0 225.5 0C167.5 0 112.7 8.7 71.3 24.6C25.8 42.1 0.800049 66.9 0.800049 94.5V392.5C0.800049 420.1 25.8 444.9 71.3 462.4C112.7 478.3 167.5 487 225.5 487C283.5 487 338.3 478.3 379.7 462.4C425.2 445 450.2 420.1 450.2 392.5V94.5C450.2 66.9 425.2 42.1 379.7 24.6ZM423.2 392.5C423.2 407.7 403.3 424.4 370 437.2C331.6 451.9 280.3 460 225.5 460C170.7 460 119.4 451.9 81 437.2C47.7 424.4 27.8 407.7 27.8 392.5V341.1C39 349.9 53.6 357.8 71.3 364.5C112.7 380.4 167.5 389.1 225.5 389.1C283.5 389.1 338.3 380.4 379.7 364.5C397.4 357.7 412 349.8 423.2 341.1V392.5ZM423.2 294.7C423.2 309.9 403.3 326.6 370 339.4C331.6 354.1 280.3 362.2 225.5 362.2C170.7 362.2 119.4 354.1 81 339.4C47.7 326.6 27.8 309.9 27.8 294.7V241.8C39 250.6 53.6 258.5 71.3 265.2C112.7 281.1 167.5 289.8 225.5 289.8C283.5 289.8 338.3 281.1 379.7 265.2C397.4 258.4 412 250.5 423.2 241.8V294.7ZM423.2 195.3C423.2 210.5 403.3 227.2 370 240C331.6 254.7 280.3 262.8 225.5 262.8C170.7 262.8 119.4 254.7 81 240C47.7 227.2 27.8 210.5 27.8 195.3V193.8V140.9C39 149.7 53.6 157.6 71.3 164.3C112.7 180.2 167.5 188.9 225.5 188.9C283.5 188.9 338.3 180.2 379.7 164.3C397.4 157.5 412 149.6 423.2 140.9V195.3ZM370 139.1C331.6 153.8 280.3 161.9 225.5 161.9C170.7 161.9 119.4 153.8 81 139.1C47.7 126.3 27.8 109.6 27.8 94.4C27.8 79.2 47.7 62.5 81 49.7C119.4 35 170.7 26.9 225.5 26.9C280.3 26.9 331.6 35 370 49.7C403.3 62.5 423.2 79.2 423.2 94.4C423.2 109.6 403.3 126.4 370 139.1Z" fill="#40C9DB"/>
</svg>
